<?xml version="1.0" standalone="no"?>
<!DOCTYPE svg PUBLIC "-//W3C//DTD SVG 20010904//EN"
 "http://www.w3.org/TR/2001/REC-SVG-20010904/DTD/svg10.dtd">
<svg version="1.0" xmlns="http://www.w3.org/2000/svg"
 width="1125.000000pt" height="1125.000000pt" viewBox="0 0 1125.000000 1125.000000"
 preserveAspectRatio="xMidYMid meet">
<metadata>
Created by potrace 1.14, written by Peter Selinger 2001-2017
</metadata>
<g transform="translate(0.000000,1125.000000) scale(0.100000,-0.100000)"
fill="#000000" stroke="none">
<path d="M9000 10265 l0 -185 -185 0 -185 0 -2 -187 -3 -188 -187 -3 -188 -2
0 -185 0 -185 -185 0 -185 0 -2 -372 -3 -373 -187 -3 -188 -2 0 -375 0 -375
-185 0 -185 0 -1 -532 c-1 -293 -1 -537 0 -542 1 -6 0 -20 -4 -33 l-5 -23
-185 0 -185 0 0 1315 0 1315 -375 0 -375 0 0 -190 0 -190 -185 0 -185 0 0
-185 0 -185 -190 0 -190 0 -2 -187 -3 -188 -370 0 -370 0 -3 187 -2 188 -188
2 -187 3 -3 182 -2 183 -183 2 -182 3 -3 188 -2 187 -375 0 -375 0 0 -1685 0
-1685 188 -2 187 -3 3 -187 2 -188 185 0 185 0 0 -185 0 -185 188 -2 187 -3 0
-375 0 -375 -187 -3 -188 -2 0 -375 0 -375 -185 0 -185 0 -2 -182 -3 -183
-187 -3 -188 -2 -2 -188 -3 -187 -182 -3 -183 -2 0 -185 0 -185 -190 0 -190 0
-2 -187 -3 -188 -182 -3 -183 -2 -2 -183 -3 -182 -188 -3 -187 -2 0 -375 0
-375 188 -2 187 -3 3 -182 2 -183 370 0 370 0 2 183 3 182 187 3 188 2 2 188
3 187 182 3 183 2 2 183 3 182 188 3 187 2 0 375 0 375 940 0 940 0 0 -185 0
-185 183 -2 182 -3 0 -375 0 -375 -182 -3 -183 -2 0 -370 0 -370 560 0 560 0
0 185 0 185 185 0 185 0 0 750 0 750 190 0 190 0 0 190 0 190 375 0 375 0 0
-375 0 -375 188 -2 187 -3 0 -375 0 -375 -187 -3 -188 -2 0 -370 0 -370 560 0
560 0 0 185 0 185 190 0 190 0 0 935 0 935 -187 2 -188 3 -3 562 -2 563 -185
0 -185 0 0 375 0 375 -187 2 -188 3 -3 373 -2 372 -185 0 -185 0 2 938 3 937
182 3 183 2 2 558 3 557 188 3 187 2 0 375 0 375 185 0 185 0 2 188 3 187 188
3 187 2 0 370 0 370 -375 0 -375 0 0 -185z m-4880 -3000 l0 -185 190 0 190 0
0 -185 0 -185 -187 -2 -188 -3 -3 -187 -2 -188 -185 0 -185 0 0 190 0 190
-185 0 -185 0 0 185 0 185 185 0 185 0 0 185 0 185 185 0 185 0 0 -185z m1880
0 l0 -185 185 0 185 0 0 -185 0 -185 -185 0 -185 0 0 -190 0 -190 -185 0 -185
0 -2 188 -3 187 -187 3 -188 2 0 185 0 185 190 0 190 0 0 185 0 185 185 0 185
0 0 -185z"/>
</g>
</svg>
